<svg width="225" height="23" viewBox="0 0 225 23" fill="none" xmlns="http://www.w3.org/2000/svg">
<path fill-rule="evenodd" clip-rule="evenodd" d="M29.5875 9.17636V11.6339L25.1915 11.6339L25.1904 11.7671C25.0929 17.7297 20.1874 22.5335 14.1503 22.5335C10.3489 22.5335 6.99619 20.6288 5.00998 17.7295L8.12012 16.6063C9.58731 18.3075 11.7678 19.3858 14.2024 19.3858C18.5599 19.3858 22.1036 15.9314 22.1998 11.634L22.1983 11.6339V9.17636H29.5875ZM14.431 6.82663C17.0346 6.82663 19.1452 8.92719 19.1452 11.5184C19.1452 14.1096 17.0346 16.2101 14.431 16.2101C11.8274 16.2101 9.71682 14.1096 9.71682 11.5184C9.71682 8.92719 11.8274 6.82663 14.431 6.82663ZM14.1503 0.638672C18.1297 0.638672 21.6175 2.72589 23.5606 5.85639L20.7356 6.87656C19.2867 4.84763 16.9005 3.5232 14.2024 3.5232C9.78441 3.5232 6.20293 7.07415 6.20293 11.4545C6.20293 11.4832 6.20308 11.512 6.20339 11.5407L6.19553 11.5407V14.7169L0.1875 14.717V12.036L3.11798 12.036C3.1119 11.8868 3.10882 11.7368 3.10882 11.5861C3.10882 5.53999 8.05228 0.638672 14.1503 0.638672ZM14.431 9.54326C13.2974 9.54326 12.3784 10.4579 12.3784 11.5861C12.3784 12.7143 13.2974 13.6289 14.431 13.6289C15.5646 13.6289 16.4836 12.7143 16.4836 11.5861C16.4836 10.4579 15.5646 9.54326 14.431 9.54326Z" fill="#E47D38"/>
<path d="M42.5759 19.7093C45.7958 19.7093 49.1083 18.3471 49.1083 14.653C49.1083 8.67305 40.0046 10.6817 40.0046 7.88804C40.0046 6.71053 41.3714 6.24876 42.3443 6.24876C44.0816 6.24876 45.0313 6.77979 45.2167 8.41907H48.5755C48.4597 4.84036 45.541 3.40887 42.2979 3.40887C39.4255 3.40887 36.4142 4.93271 36.4142 8.1651C36.4142 13.9603 45.5178 11.9978 45.5178 15.0455C45.5178 16.4539 43.8036 16.8925 42.7149 16.8925C41.0007 16.8925 39.5182 16.0383 39.4255 14.1681H35.9045C35.9277 18.0008 39.1012 19.7093 42.5759 19.7093ZM56.451 19.7093C59.6709 19.7093 62.9834 18.3471 62.9834 14.653C62.9834 8.67305 53.8798 10.6817 53.8798 7.88804C53.8798 6.71053 55.2465 6.24876 56.2194 6.24876C57.9567 6.24876 58.9065 6.77979 59.0918 8.41907H62.4506C62.3348 4.84036 59.4161 3.40887 56.173 3.40887C53.3007 3.40887 50.2893 4.93271 50.2893 8.1651C50.2893 13.9603 59.3929 11.9978 59.3929 15.0455C59.3929 16.4539 57.6787 16.8925 56.59 16.8925C54.8758 16.8925 53.3933 16.0383 53.3007 14.1681H49.7797C49.8028 18.0008 52.9764 19.7093 56.451 19.7093ZM72.2825 19.7093C76.8166 19.7093 80.4392 16.0534 80.4392 11.5591V11.0235H72.6097V13.6549H76.653C75.7882 16.0534 73.825 16.5424 72.2825 16.5424C69.7583 16.5424 67.6549 14.2836 67.6549 11.6057C67.6549 8.92774 69.7583 6.66897 72.2825 6.66897C73.825 6.66897 75.4143 7.2977 76.1855 8.97432H80.0419C78.9434 5.69094 75.7882 3.40887 72.2825 3.40887C67.7951 3.40887 64.1024 7.08812 64.1024 11.5591C64.1024 16.0301 67.7951 19.7093 72.2825 19.7093ZM89.2529 19.7093C92.8588 19.7093 95.9297 17.3574 96.9998 14.0973H93.1147C92.4633 15.4945 90.8814 16.4492 89.2529 16.4492C86.6939 16.4492 84.6467 14.2603 84.6467 11.5591C84.6467 8.88117 86.6939 6.66897 89.2529 6.66897C90.8581 6.66897 92.4401 7.55385 93.0915 8.97432H96.9765C95.9064 5.73751 92.8588 3.40887 89.2529 3.40887C84.763 3.40887 81.1106 7.06483 81.1106 11.5591C81.1106 16.0534 84.763 19.7093 89.2529 19.7093Z" fill="#E47D38"/>
<path d="M106.83 13.411V19H103.38V3.36H105.979H106.83H109.245C111.775 3.36 114.029 5.407 114.029 8.374C114.029 11.019 112.442 12.767 110.464 13.25L114.949 19H110.579L106.853 13.411H106.83ZM108.67 6.074H106.83V10.697H108.67C109.682 10.697 110.74 9.869 110.74 8.374C110.74 6.948 109.682 6.074 108.67 6.074ZM124.65 15.872V19H115.588V3.36H124.65V6.488H119.038V9.593H124.42V12.721H119.038V15.872H124.65ZM133.014 16.562C134.095 16.562 135.797 16.125 135.797 14.722C135.797 11.686 126.758 13.641 126.758 7.868C126.758 4.648 129.748 3.13 132.6 3.13C135.82 3.13 138.718 4.556 138.833 8.121H135.498C135.314 6.488 134.371 5.959 132.646 5.959C131.68 5.959 130.323 6.419 130.323 7.592C130.323 10.375 139.362 8.374 139.362 14.331C139.362 18.011 136.073 19.368 132.876 19.368C129.426 19.368 126.275 17.666 126.252 13.848H129.748C129.84 15.711 131.312 16.562 133.014 16.562ZM153.045 11.157C153.045 8.742 150.86 6.557 148.445 6.557C146.03 6.557 143.845 8.742 143.845 11.157C143.845 13.572 146.03 15.78 148.445 15.78C150.86 15.78 153.045 13.572 153.045 11.157ZM156.495 11.18C156.495 15.504 152.769 19.23 148.445 19.23C144.121 19.23 140.395 15.504 140.395 11.18C140.395 6.856 144.121 3.13 148.445 3.13C152.769 3.13 156.495 6.856 156.495 11.18ZM167.34 3.36H170.79V12.905C170.79 17.068 168.398 19.23 164.327 19.23C160.256 19.23 157.864 17.068 157.864 12.905V3.36H161.314V12.399C161.314 14.561 161.981 15.78 164.327 15.78C166.696 15.78 167.34 14.561 167.34 12.399V3.36ZM176.203 13.411V19H172.753V3.36H175.352H176.203H178.618C181.148 3.36 183.402 5.407 183.402 8.374C183.402 11.019 181.815 12.767 179.837 13.25L184.322 19H179.952L176.226 13.411H176.203ZM178.043 6.074H176.203V10.697H178.043C179.055 10.697 180.113 9.869 180.113 8.374C180.113 6.948 179.055 6.074 178.043 6.074ZM196.254 13.687H200.095C199.037 16.907 196.001 19.23 192.436 19.23C187.997 19.23 184.386 15.619 184.386 11.18C184.386 6.741 187.997 3.13 192.436 3.13C196.001 3.13 199.014 5.43 200.072 8.627H196.231C195.587 7.224 194.023 6.35 192.436 6.35C189.906 6.35 187.882 8.535 187.882 11.18C187.882 13.848 189.906 16.01 192.436 16.01C194.046 16.01 195.61 15.067 196.254 13.687ZM210.656 15.872V19H201.594V3.36H210.656V6.488H205.044V9.593H210.426V12.721H205.044V15.872H210.656ZM216.398 13.411V19H212.948V3.36H215.547H216.398H218.813C221.343 3.36 223.597 5.407 223.597 8.374C223.597 11.019 222.01 12.767 220.032 13.25L224.517 19H220.147L216.421 13.411H216.398ZM218.238 6.074H216.398V10.697H218.238C219.25 10.697 220.308 9.869 220.308 8.374C220.308 6.948 219.25 6.074 218.238 6.074Z" fill="#FDA76D"/>
</svg>
