<svg width="30" height="23" viewBox="0 0 30 23" fill="none" xmlns="http://www.w3.org/2000/svg">
<path fill-rule="evenodd" clip-rule="evenodd" d="M29.5875 9.17636V11.6339L25.1915 11.6339L25.1904 11.7671C25.0929 17.7297 20.1874 22.5335 14.1503 22.5335C10.3489 22.5335 6.99619 20.6288 5.00998 17.7295L8.12012 16.6063C9.58731 18.3075 11.7678 19.3858 14.2024 19.3858C18.5599 19.3858 22.1036 15.9314 22.1998 11.634L22.1983 11.6339V9.17636H29.5875ZM14.431 6.82663C17.0346 6.82663 19.1452 8.92719 19.1452 11.5184C19.1452 14.1096 17.0346 16.2101 14.431 16.2101C11.8274 16.2101 9.71682 14.1096 9.71682 11.5184C9.71682 8.92719 11.8274 6.82663 14.431 6.82663ZM14.1503 0.638672C18.1297 0.638672 21.6175 2.72589 23.5606 5.85639L20.7356 6.87656C19.2867 4.84763 16.9005 3.5232 14.2024 3.5232C9.78441 3.5232 6.20293 7.07415 6.20293 11.4545C6.20293 11.4832 6.20308 11.512 6.20339 11.5407L6.19553 11.5407V14.7169L0.1875 14.717V12.036L3.11798 12.036C3.1119 11.8868 3.10882 11.7368 3.10882 11.5861C3.10882 5.53999 8.05228 0.638672 14.1503 0.638672ZM14.431 9.54326C13.2974 9.54326 12.3784 10.4579 12.3784 11.5861C12.3784 12.7143 13.2974 13.6289 14.431 13.6289C15.5646 13.6289 16.4836 12.7143 16.4836 11.5861C16.4836 10.4579 15.5646 9.54326 14.431 9.54326Z" fill="#E47D38"/>
</svg>
