<svg width="120" height="42" viewBox="0 0 120 42" fill="none" xmlns="http://www.w3.org/2000/svg">
<path fill-rule="evenodd" clip-rule="evenodd" d="M103.231 21.9999L123 0.348445L120.046 -2.34863L99.0461 20.6514C98.3487 21.4152 98.3487 22.5847 99.0461 23.3484L120.046 46.3484L123 43.6514L103.231 21.9999ZM48.2313 21.9999L68 0.348445L65.0461 -2.34863L44.0461 20.6514C43.3487 21.4152 43.3487 22.5847 44.0461 23.3484L65.0461 46.3484L68 43.6514L48.2313 21.9999ZM34.2313 21.9999L54 0.348445L51.0461 -2.34863L30.0461 20.6514C29.3487 21.4152 29.3487 22.5847 30.0461 23.3484L51.0461 46.3484L54 43.6514L34.2313 21.9999ZM40 0.348445L20.2313 21.9999L40 43.6514L37.0461 46.3484L16.0461 23.3484C15.3487 22.5847 15.3487 21.4152 16.0461 20.6514L37.0461 -2.34863L40 0.348445ZM6.23128 21.9999L26 0.348445L23.0461 -2.34863L2.04606 20.6514C1.34869 21.4152 1.34869 22.5847 2.04606 23.3484L23.0461 46.3484L26 43.6514L6.23128 21.9999ZM12 0.348445L-7.76872 21.9999L12 43.6514L9.04606 46.3484L-11.9539 23.3484C-12.6513 22.5847 -12.6513 21.4152 -11.9539 20.6514L9.04606 -2.34863L12 0.348445ZM109 0.348445L89.2313 21.9999L109 43.6514L106.046 46.3484L85.0461 23.3484C84.3487 22.5847 84.3487 21.4152 85.0461 20.6514L106.046 -2.34863L109 0.348445ZM75.2313 21.9999L95 0.348445L92.0461 -2.34863L71.0461 20.6514C70.3487 21.4152 70.3487 22.5847 71.0461 23.3484L92.0461 46.3484L95 43.6514L75.2313 21.9999ZM81 0.348445L61.2313 21.9999L81 43.6514L78.0461 46.3484L57.0461 23.3484C56.3487 22.5847 56.3487 21.4152 57.0461 20.6514L78.0461 -2.34863L81 0.348445Z" fill="#33415C"/>
</svg>
