<svg width="120" height="43" viewBox="0 0 120 43" fill="none" xmlns="http://www.w3.org/2000/svg">
<path fill-rule="evenodd" clip-rule="evenodd" d="M103.231 22.579L123 0.927546L120.046 -1.76953L99.0461 21.2305C98.3487 21.9943 98.3487 23.1638 99.0461 23.9275L120.046 46.9275L123 44.2305L103.231 22.579ZM48.2313 22.579L68 0.927546L65.0461 -1.76953L44.0461 21.2305C43.3487 21.9943 43.3487 23.1638 44.0461 23.9275L65.0461 46.9275L68 44.2305L48.2313 22.579ZM34.2313 22.579L54 0.927546L51.0461 -1.76953L30.0461 21.2305C29.3487 21.9943 29.3487 23.1638 30.0461 23.9275L51.0461 46.9275L54 44.2305L34.2313 22.579ZM40 0.927546L20.2313 22.579L40 44.2305L37.0461 46.9275L16.0461 23.9275C15.3487 23.1638 15.3487 21.9943 16.0461 21.2305L37.0461 -1.76953L40 0.927546ZM6.23128 22.579L26 0.927546L23.0461 -1.76953L2.04606 21.2305C1.34869 21.9943 1.34869 23.1638 2.04606 23.9275L23.0461 46.9275L26 44.2305L6.23128 22.579ZM12 0.927546L-7.76872 22.579L12 44.2305L9.04606 46.9275L-11.9539 23.9275C-12.6513 23.1638 -12.6513 21.9943 -11.9539 21.2305L9.04606 -1.76953L12 0.927546ZM109 0.927546L89.2313 22.579L109 44.2305L106.046 46.9275L85.0461 23.9275C84.3487 23.1638 84.3487 21.9943 85.0461 21.2305L106.046 -1.76953L109 0.927546ZM75.2313 22.579L95 0.927546L92.0461 -1.76953L71.0461 21.2305C70.3487 21.9943 70.3487 23.1638 71.0461 23.9275L92.0461 46.9275L95 44.2305L75.2313 22.579ZM81 0.927546L61.2313 22.579L81 44.2305L78.0461 46.9275L57.0461 23.9275C56.3487 23.1638 56.3487 21.9943 57.0461 21.2305L78.0461 -1.76953L81 0.927546Z" fill="#47BE7D"/>
</svg>
