<svg width="120" height="42" viewBox="0 0 120 42" fill="none" xmlns="http://www.w3.org/2000/svg">
<path fill-rule="evenodd" clip-rule="evenodd" d="M7.29167 21.9999L-12.4771 0.348445L-9.52311 -2.34863L11.4769 20.6514C12.1743 21.4152 12.1743 22.5847 11.4769 23.3484L-9.52311 46.3484L-12.4771 43.6514L7.29167 21.9999ZM62.2917 21.9999L42.5229 0.348445L45.4769 -2.34863L66.4769 20.6514C67.1743 21.4152 67.1743 22.5847 66.4769 23.3484L45.4769 46.3484L42.5229 43.6514L62.2917 21.9999ZM76.2917 21.9999L56.5229 0.348445L59.4769 -2.34863L80.4769 20.6514C81.1743 21.4152 81.1743 22.5847 80.4769 23.3484L59.4769 46.3484L56.5229 43.6514L76.2917 21.9999ZM70.5229 0.348445L90.2917 21.9999L70.5229 43.6514L73.4769 46.3484L94.4769 23.3484C95.1743 22.5847 95.1743 21.4152 94.4769 20.6514L73.4769 -2.34863L70.5229 0.348445ZM104.292 21.9999L84.5229 0.348445L87.4769 -2.34863L108.477 20.6514C109.174 21.4152 109.174 22.5847 108.477 23.3484L87.4769 46.3484L84.5229 43.6514L104.292 21.9999ZM98.5229 0.348445L118.292 21.9999L98.5229 43.6514L101.477 46.3484L122.477 23.3484C123.174 22.5847 123.174 21.4152 122.477 20.6514L101.477 -2.34863L98.5229 0.348445ZM1.52295 0.348445L21.2917 21.9999L1.52295 43.6514L4.47689 46.3484L25.4769 23.3484C26.1743 22.5847 26.1743 21.4152 25.4769 20.6514L4.47689 -2.34863L1.52295 0.348445ZM35.2917 21.9999L15.5229 0.348445L18.4769 -2.34863L39.4769 20.6514C40.1743 21.4152 40.1743 22.5847 39.4769 23.3484L18.4769 46.3484L15.5229 43.6514L35.2917 21.9999ZM29.5229 0.348445L49.2917 21.9999L29.5229 43.6514L32.4769 46.3484L53.4769 23.3484C54.1743 22.5847 54.1743 21.4152 53.4769 20.6514L32.4769 -2.34863L29.5229 0.348445Z" fill="#50CD89"/>
</svg>
