<svg width="120" height="43" viewBox="0 0 120 43" fill="none" xmlns="http://www.w3.org/2000/svg">
<path fill-rule="evenodd" clip-rule="evenodd" d="M112.708 22.579L132.477 0.927546L129.523 -1.76953L108.523 21.2305C107.826 21.9943 107.826 23.1638 108.523 23.9275L129.523 46.9275L132.477 44.2305L112.708 22.579ZM57.7083 22.579L77.4771 0.927546L74.5231 -1.76953L53.5231 21.2305C52.8257 21.9943 52.8257 23.1638 53.5231 23.9275L74.5231 46.9275L77.4771 44.2305L57.7083 22.579ZM43.7083 22.579L63.4771 0.927546L60.5231 -1.76953L39.5231 21.2305C38.8257 21.9943 38.8257 23.1638 39.5231 23.9275L60.5231 46.9275L63.4771 44.2305L43.7083 22.579ZM49.4771 0.927546L29.7083 22.579L49.4771 44.2305L46.5231 46.9275L25.5231 23.9275C24.8257 23.1638 24.8257 21.9943 25.5231 21.2305L46.5231 -1.76953L49.4771 0.927546ZM15.7083 22.579L35.4771 0.927546L32.5231 -1.76953L11.5231 21.2305C10.8257 21.9943 10.8257 23.1638 11.5231 23.9275L32.5231 46.9275L35.4771 44.2305L15.7083 22.579ZM21.4771 0.927546L1.70833 22.579L21.4771 44.2305L18.5231 46.9275L-2.4769 23.9275C-3.17426 23.1638 -3.17426 21.9943 -2.4769 21.2305L18.5231 -1.76953L21.4771 0.927546ZM118.477 0.927546L98.7083 22.579L118.477 44.2305L115.523 46.9275L94.5231 23.9275C93.8257 23.1638 93.8257 21.9943 94.5231 21.2305L115.523 -1.76953L118.477 0.927546ZM84.7083 22.579L104.477 0.927546L101.523 -1.76953L80.5231 21.2305C79.8257 21.9943 79.8257 23.1638 80.5231 23.9275L101.523 46.9275L104.477 44.2305L84.7083 22.579ZM90.4771 0.927546L70.7083 22.579L90.4771 44.2305L87.5231 46.9275L66.5231 23.9275C65.8257 23.1638 65.8257 21.9943 66.5231 21.2305L87.5231 -1.76953L90.4771 0.927546Z" fill="#E9B500"/>
</svg>
