<svg width="24" height="24" viewBox="0 0 24 24" fill="none" xmlns="http://www.w3.org/2000/svg">
<path d="M12 22.26C11.1542 22.2637 10.3226 22.0428 9.59002 21.62L4.88002 18.9C4.14594 18.4762 3.53604 17.867 3.11134 17.1335C2.68665 16.3999 2.46205 15.5676 2.46002 14.72V9.28001C2.46205 8.43237 2.68665 7.60013 3.11134 6.86657C3.53604 6.133 4.14594 5.52383 4.88002 5.10001L9.59002 2.38001C10.3228 1.95697 11.1539 1.73425 12 1.73425C12.8461 1.73425 13.6773 1.95697 14.41 2.38001L19.12 5.10001C19.8541 5.52383 20.464 6.133 20.8887 6.86657C21.3134 7.60013 21.538 8.43237 21.54 9.28001V14.72C21.538 15.5676 21.3134 16.3999 20.8887 17.1335C20.464 17.867 19.8541 18.4762 19.12 18.9L14.41 21.62C13.6769 22.0415 12.8456 22.2622 12 22.26ZM12 3.26001C11.4172 3.25519 10.8439 3.40716 10.34 3.70001L5.63002 6.40001C5.13088 6.69635 4.71786 7.11801 4.43194 7.6232C4.14602 8.12838 3.99713 8.69953 4.00002 9.28001V14.72C3.99713 15.3005 4.14602 15.8716 4.43194 16.3768C4.71786 16.882 5.13088 17.3037 5.63002 17.6L10.34 20.32C10.8451 20.6104 11.4174 20.7633 12 20.7633C12.5826 20.7633 13.155 20.6104 13.66 20.32L18.37 17.6C18.8692 17.3037 19.2822 16.882 19.5681 16.3768C19.854 15.8716 20.0029 15.3005 20 14.72V9.28001C20.0029 8.69953 19.854 8.12838 19.5681 7.6232C19.2822 7.11801 18.8692 6.69635 18.37 6.40001L13.66 3.68001C13.1561 3.38716 12.5828 3.23519 12 3.24001V3.26001Z" fill="white"/>
<path d="M12 16.08C11.1931 16.08 10.4043 15.8407 9.73332 15.3924C9.06237 14.9441 8.53942 14.3069 8.23062 13.5613C7.92181 12.8158 7.84101 11.9955 7.99844 11.204C8.15587 10.4126 8.54445 9.68559 9.11505 9.11499C9.68565 8.54439 10.4126 8.15581 11.2041 7.99838C11.9955 7.84095 12.8159 7.92175 13.5614 8.23056C14.3069 8.53936 14.9441 9.06231 15.3924 9.73326C15.8408 10.4042 16.08 11.193 16.08 12C16.08 13.0821 15.6502 14.1198 14.885 14.885C14.1199 15.6501 13.0821 16.08 12 16.08ZM12 9.41998C11.4898 9.41998 10.991 9.5713 10.5667 9.85479C10.1424 10.1383 9.81171 10.5412 9.61644 11.0127C9.42116 11.4841 9.37007 12.0028 9.46962 12.5033C9.56917 13.0038 9.81489 13.4635 10.1757 13.8243C10.5365 14.1851 10.9962 14.4309 11.4967 14.5304C11.9972 14.63 12.5159 14.5789 12.9874 14.3836C13.4588 14.1883 13.8617 13.8576 14.1452 13.4334C14.4287 13.0091 14.58 12.5103 14.58 12C14.5774 11.3165 14.3047 10.6618 13.8215 10.1786C13.3382 9.69529 12.6835 9.42262 12 9.41998Z" fill="white"/>
</svg>
